<mxfile host="app.diagrams.net" modified="2024-05-26T08:52:52.084Z" agent="Mozilla/5.0 (Windows NT 10.0; Win64; x64) AppleWebKit/537.36 (KHTML, like Gecko) Chrome/125.0.0.0 Safari/537.36 Edg/125.0.0.0" etag="pa8CFR1kidpO9vAQTssQ" version="24.4.8" type="github">
  <diagram name="Page-1" id="0OEiadTwedK9OF3VuR5B">
    <mxGraphModel dx="1246" dy="676" grid="1" gridSize="10" guides="1" tooltips="1" connect="1" arrows="1" fold="1" page="1" pageScale="1" pageWidth="850" pageHeight="1100" math="0" shadow="0">
      <root>
        <mxCell id="0" />
        <mxCell id="1" parent="0" />
        <mxCell id="Xme-DQqSRMWEWlAMDiF_-7" style="edgeStyle=orthogonalEdgeStyle;rounded=0;orthogonalLoop=1;jettySize=auto;html=1;" edge="1" parent="1" source="Xme-DQqSRMWEWlAMDiF_-1" target="Xme-DQqSRMWEWlAMDiF_-2">
          <mxGeometry relative="1" as="geometry" />
        </mxCell>
        <mxCell id="Xme-DQqSRMWEWlAMDiF_-1" value="Mulai" style="ellipse;whiteSpace=wrap;html=1;" vertex="1" parent="1">
          <mxGeometry x="380" width="120" height="80" as="geometry" />
        </mxCell>
        <mxCell id="Xme-DQqSRMWEWlAMDiF_-9" style="edgeStyle=orthogonalEdgeStyle;rounded=0;orthogonalLoop=1;jettySize=auto;html=1;" edge="1" parent="1" source="Xme-DQqSRMWEWlAMDiF_-2" target="Xme-DQqSRMWEWlAMDiF_-3">
          <mxGeometry relative="1" as="geometry" />
        </mxCell>
        <mxCell id="Xme-DQqSRMWEWlAMDiF_-2" value="Pengenalan K3" style="shape=parallelogram;perimeter=parallelogramPerimeter;whiteSpace=wrap;html=1;fixedSize=1;" vertex="1" parent="1">
          <mxGeometry x="380" y="130" width="120" height="60" as="geometry" />
        </mxCell>
        <mxCell id="Xme-DQqSRMWEWlAMDiF_-10" style="edgeStyle=orthogonalEdgeStyle;rounded=0;orthogonalLoop=1;jettySize=auto;html=1;exitX=0.5;exitY=1;exitDx=0;exitDy=0;" edge="1" parent="1" source="Xme-DQqSRMWEWlAMDiF_-3" target="Xme-DQqSRMWEWlAMDiF_-5">
          <mxGeometry relative="1" as="geometry" />
        </mxCell>
        <mxCell id="Xme-DQqSRMWEWlAMDiF_-3" value="Pratikum, StudyCase" style="rounded=0;whiteSpace=wrap;html=1;" vertex="1" parent="1">
          <mxGeometry x="380" y="230" width="120" height="60" as="geometry" />
        </mxCell>
        <mxCell id="Xme-DQqSRMWEWlAMDiF_-11" style="edgeStyle=orthogonalEdgeStyle;rounded=0;orthogonalLoop=1;jettySize=auto;html=1;" edge="1" parent="1" source="Xme-DQqSRMWEWlAMDiF_-5" target="Xme-DQqSRMWEWlAMDiF_-6">
          <mxGeometry relative="1" as="geometry" />
        </mxCell>
        <mxCell id="Xme-DQqSRMWEWlAMDiF_-5" value="Pengetahuan K3" style="shape=parallelogram;perimeter=parallelogramPerimeter;whiteSpace=wrap;html=1;fixedSize=1;" vertex="1" parent="1">
          <mxGeometry x="365" y="310" width="120" height="60" as="geometry" />
        </mxCell>
        <mxCell id="Xme-DQqSRMWEWlAMDiF_-6" value="Selesai" style="ellipse;whiteSpace=wrap;html=1;" vertex="1" parent="1">
          <mxGeometry x="365" y="400" width="120" height="80" as="geometry" />
        </mxCell>
      </root>
    </mxGraphModel>
  </diagram>
</mxfile>
